<svg width="140" height="140" viewBox="0 0 140 140" fill="none" xmlns="http://www.w3.org/2000/svg">
<path d="M63.299 23.034C63.299 23.6051 62.8374 24.068 62.268 24.068C61.6987 24.068 61.2371 23.6051 61.2371 23.034C61.2371 22.4629 61.6987 22 62.268 22C62.8374 22 63.299 22.4629 63.299 23.034Z" fill="white"/>
<path d="M68.4536 23.034C68.4536 23.6051 67.992 24.068 67.4227 24.068C66.8533 24.068 66.3918 23.6051 66.3918 23.034C66.3918 22.4629 66.8533 22 67.4227 22C67.992 22 68.4536 22.4629 68.4536 23.034Z" fill="white"/>
<path d="M63.299 28.2041C63.299 28.7752 62.8374 29.2381 62.268 29.2381C61.6987 29.2381 61.2371 28.7752 61.2371 28.2041C61.2371 27.633 61.6987 27.1701 62.268 27.1701C62.8374 27.1701 63.299 27.633 63.299 28.2041Z" fill="white"/>
<path d="M68.4536 28.2041C68.4536 28.7752 67.992 29.2381 67.4227 29.2381C66.8533 29.2381 66.3918 28.7752 66.3918 28.2041C66.3918 27.633 66.8533 27.1701 67.4227 27.1701C67.992 27.1701 68.4536 27.633 68.4536 28.2041Z" fill="white"/>
<path d="M58.1443 33.3742C58.1443 33.9452 57.6828 34.4082 57.1134 34.4082C56.544 34.4082 56.0825 33.9452 56.0825 33.3742C56.0825 32.8031 56.544 32.3401 57.1134 32.3401C57.6828 32.3401 58.1443 32.8031 58.1443 33.3742Z" fill="white"/>
<path d="M63.299 33.3742C63.299 33.9452 62.8374 34.4082 62.268 34.4082C61.6987 34.4082 61.2371 33.9452 61.2371 33.3742C61.2371 32.8031 61.6987 32.3401 62.268 32.3401C62.8374 32.3401 63.299 32.8031 63.299 33.3742Z" fill="white"/>
<path d="M68.4536 33.3742C68.4536 33.9452 67.992 34.4082 67.4227 34.4082C66.8533 34.4082 66.3918 33.9452 66.3918 33.3742C66.3918 32.8031 66.8533 32.3401 67.4227 32.3401C67.992 32.3401 68.4536 32.8031 68.4536 33.3742Z" fill="white"/>
<path d="M58.1443 38.5442C58.1443 39.1153 57.6828 39.5782 57.1134 39.5782C56.544 39.5782 56.0825 39.1153 56.0825 38.5442C56.0825 37.9731 56.544 37.5102 57.1134 37.5102C57.6828 37.5102 58.1443 37.9731 58.1443 38.5442Z" fill="white"/>
<path d="M63.299 38.5442C63.299 39.1153 62.8374 39.5782 62.268 39.5782C61.6987 39.5782 61.2371 39.1153 61.2371 38.5442C61.2371 37.9731 61.6987 37.5102 62.268 37.5102C62.8374 37.5102 63.299 37.9731 63.299 38.5442Z" fill="white"/>
<path d="M68.4536 38.5442C68.4536 39.1153 67.992 39.5782 67.4227 39.5782C66.8533 39.5782 66.3918 39.1153 66.3918 38.5442C66.3918 37.9731 66.8533 37.5102 67.4227 37.5102C67.992 37.5102 68.4536 37.9731 68.4536 38.5442Z" fill="white"/>
<path d="M52.9897 43.7143C52.9897 44.2854 52.5281 44.7483 51.9588 44.7483C51.3894 44.7483 50.9278 44.2854 50.9278 43.7143C50.9278 43.1432 51.3894 42.6803 51.9588 42.6803C52.5281 42.6803 52.9897 43.1432 52.9897 43.7143Z" fill="white"/>
<path d="M58.1443 43.7143C58.1443 44.2854 57.6828 44.7483 57.1134 44.7483C56.544 44.7483 56.0825 44.2854 56.0825 43.7143C56.0825 43.1432 56.544 42.6803 57.1134 42.6803C57.6828 42.6803 58.1443 43.1432 58.1443 43.7143Z" fill="white"/>
<path d="M63.299 43.7143C63.299 44.2854 62.8374 44.7483 62.268 44.7483C61.6987 44.7483 61.2371 44.2854 61.2371 43.7143C61.2371 43.1432 61.6987 42.6803 62.268 42.6803C62.8374 42.6803 63.299 43.1432 63.299 43.7143Z" fill="white"/>
<path d="M68.4536 43.7143C68.4536 44.2854 67.992 44.7483 67.4227 44.7483C66.8533 44.7483 66.3918 44.2854 66.3918 43.7143C66.3918 43.1432 66.8533 42.6803 67.4227 42.6803C67.992 42.6803 68.4536 43.1432 68.4536 43.7143Z" fill="white"/>
<path d="M47.8351 48.8844C47.8351 49.4554 47.3735 49.9184 46.8041 49.9184C46.2348 49.9184 45.7732 49.4554 45.7732 48.8844C45.7732 48.3133 46.2348 47.8503 46.8041 47.8503C47.3735 47.8503 47.8351 48.3133 47.8351 48.8844Z" fill="white"/>
<path d="M52.9897 48.8844C52.9897 49.4554 52.5281 49.9184 51.9588 49.9184C51.3894 49.9184 50.9278 49.4554 50.9278 48.8844C50.9278 48.3133 51.3894 47.8503 51.9588 47.8503C52.5281 47.8503 52.9897 48.3133 52.9897 48.8844Z" fill="white"/>
<path d="M58.1443 48.8844C58.1443 49.4554 57.6828 49.9184 57.1134 49.9184C56.544 49.9184 56.0825 49.4554 56.0825 48.8844C56.0825 48.3133 56.544 47.8503 57.1134 47.8503C57.6828 47.8503 58.1443 48.3133 58.1443 48.8844Z" fill="white"/>
<path d="M63.299 48.8844C63.299 49.4554 62.8374 49.9184 62.268 49.9184C61.6987 49.9184 61.2371 49.4554 61.2371 48.8844C61.2371 48.3133 61.6987 47.8503 62.268 47.8503C62.8374 47.8503 63.299 48.3133 63.299 48.8844Z" fill="white"/>
<path d="M68.4536 48.8844C68.4536 49.4554 67.992 49.9184 67.4227 49.9184C66.8533 49.9184 66.3918 49.4554 66.3918 48.8844C66.3918 48.3133 66.8533 47.8503 67.4227 47.8503C67.992 47.8503 68.4536 48.3133 68.4536 48.8844Z" fill="white"/>
<path d="M47.8351 54.0544C47.8351 54.6255 47.3735 55.0884 46.8041 55.0884C46.2348 55.0884 45.7732 54.6255 45.7732 54.0544C45.7732 53.4834 46.2348 53.0204 46.8041 53.0204C47.3735 53.0204 47.8351 53.4834 47.8351 54.0544Z" fill="white"/>
<path d="M52.9897 54.0544C52.9897 54.6255 52.5281 55.0884 51.9588 55.0884C51.3894 55.0884 50.9278 54.6255 50.9278 54.0544C50.9278 53.4834 51.3894 53.0204 51.9588 53.0204C52.5281 53.0204 52.9897 53.4834 52.9897 54.0544Z" fill="white"/>
<path d="M58.1443 54.0544C58.1443 54.6255 57.6828 55.0884 57.1134 55.0884C56.544 55.0884 56.0825 54.6255 56.0825 54.0544C56.0825 53.4834 56.544 53.0204 57.1134 53.0204C57.6828 53.0204 58.1443 53.4834 58.1443 54.0544Z" fill="white"/>
<path d="M63.299 54.0544C63.299 54.6255 62.8374 55.0884 62.268 55.0884C61.6987 55.0884 61.2371 54.6255 61.2371 54.0544C61.2371 53.4834 61.6987 53.0204 62.268 53.0204C62.8374 53.0204 63.299 53.4834 63.299 54.0544Z" fill="white"/>
<path d="M42.6804 59.2245C42.6804 59.7956 42.2189 60.2585 41.6495 60.2585C41.0801 60.2585 40.6186 59.7956 40.6186 59.2245C40.6186 58.6534 41.0801 58.1905 41.6495 58.1905C42.2189 58.1905 42.6804 58.6534 42.6804 59.2245Z" fill="white"/>
<path d="M47.8351 59.2245C47.8351 59.7956 47.3735 60.2585 46.8041 60.2585C46.2348 60.2585 45.7732 59.7956 45.7732 59.2245C45.7732 58.6534 46.2348 58.1905 46.8041 58.1905C47.3735 58.1905 47.8351 58.6534 47.8351 59.2245Z" fill="white"/>
<path d="M52.9897 59.2245C52.9897 59.7956 52.5281 60.2585 51.9588 60.2585C51.3894 60.2585 50.9278 59.7956 50.9278 59.2245C50.9278 58.6534 51.3894 58.1905 51.9588 58.1905C52.5281 58.1905 52.9897 58.6534 52.9897 59.2245Z" fill="white"/>
<path d="M58.1443 59.2245C58.1443 59.7956 57.6828 60.2585 57.1134 60.2585C56.544 60.2585 56.0825 59.7956 56.0825 59.2245C56.0825 58.6534 56.544 58.1905 57.1134 58.1905C57.6828 58.1905 58.1443 58.6534 58.1443 59.2245Z" fill="white"/>
<path d="M63.299 59.2245C63.299 59.7956 62.8374 60.2585 62.268 60.2585C61.6987 60.2585 61.2371 59.7956 61.2371 59.2245C61.2371 58.6534 61.6987 58.1905 62.268 58.1905C62.8374 58.1905 63.299 58.6534 63.299 59.2245Z" fill="white"/>
<path d="M42.6804 64.3946C42.6804 64.9656 42.2189 65.4286 41.6495 65.4286C41.0801 65.4286 40.6186 64.9656 40.6186 64.3946C40.6186 63.8235 41.0801 63.3605 41.6495 63.3605C42.2189 63.3605 42.6804 63.8235 42.6804 64.3946Z" fill="white"/>
<path d="M47.8351 64.3946C47.8351 64.9656 47.3735 65.4286 46.8041 65.4286C46.2348 65.4286 45.7732 64.9656 45.7732 64.3946C45.7732 63.8235 46.2348 63.3605 46.8041 63.3605C47.3735 63.3605 47.8351 63.8235 47.8351 64.3946Z" fill="white"/>
<path d="M52.9897 64.3946C52.9897 64.9656 52.5281 65.4286 51.9588 65.4286C51.3894 65.4286 50.9278 64.9656 50.9278 64.3946C50.9278 63.8235 51.3894 63.3605 51.9588 63.3605C52.5281 63.3605 52.9897 63.8235 52.9897 64.3946Z" fill="white"/>
<path d="M58.1443 64.3946C58.1443 64.9656 57.6828 65.4286 57.1134 65.4286C56.544 65.4286 56.0825 64.9656 56.0825 64.3946C56.0825 63.8235 56.544 63.3605 57.1134 63.3605C57.6828 63.3605 58.1443 63.8235 58.1443 64.3946Z" fill="white"/>
<path d="M63.299 64.3946C63.299 64.9656 62.8374 65.4286 62.268 65.4286C61.6987 65.4286 61.2371 64.9656 61.2371 64.3946C61.2371 63.8235 61.6987 63.3605 62.268 63.3605C62.8374 63.3605 63.299 63.8235 63.299 64.3946Z" fill="white"/>
<path d="M37.5258 69.5646C37.5258 70.1357 37.0642 70.5986 36.4948 70.5986C35.9255 70.5986 35.4639 70.1357 35.4639 69.5646C35.4639 68.9936 35.9255 68.5306 36.4948 68.5306C37.0642 68.5306 37.5258 68.9936 37.5258 69.5646Z" fill="white"/>
<path d="M42.6804 69.5646C42.6804 70.1357 42.2189 70.5986 41.6495 70.5986C41.0801 70.5986 40.6186 70.1357 40.6186 69.5646C40.6186 68.9936 41.0801 68.5306 41.6495 68.5306C42.2189 68.5306 42.6804 68.9936 42.6804 69.5646Z" fill="white"/>
<path d="M47.8351 69.5646C47.8351 70.1357 47.3735 70.5986 46.8041 70.5986C46.2348 70.5986 45.7732 70.1357 45.7732 69.5646C45.7732 68.9936 46.2348 68.5306 46.8041 68.5306C47.3735 68.5306 47.8351 68.9936 47.8351 69.5646Z" fill="white"/>
<path d="M52.9897 69.5646C52.9897 70.1357 52.5281 70.5986 51.9588 70.5986C51.3894 70.5986 50.9278 70.1357 50.9278 69.5646C50.9278 68.9936 51.3894 68.5306 51.9588 68.5306C52.5281 68.5306 52.9897 68.9936 52.9897 69.5646Z" fill="white"/>
<path d="M58.1443 69.5646C58.1443 70.1357 57.6828 70.5986 57.1134 70.5986C56.544 70.5986 56.0825 70.1357 56.0825 69.5646C56.0825 68.9936 56.544 68.5306 57.1134 68.5306C57.6828 68.5306 58.1443 68.9936 58.1443 69.5646Z" fill="white"/>
<path d="M63.299 69.5646C63.299 70.1357 62.8374 70.5986 62.268 70.5986C61.6987 70.5986 61.2371 70.1357 61.2371 69.5646C61.2371 68.9936 61.6987 68.5306 62.268 68.5306C62.8374 68.5306 63.299 68.9936 63.299 69.5646Z" fill="white"/>
<path d="M37.5258 74.7347C37.5258 75.3058 37.0642 75.7687 36.4948 75.7687C35.9255 75.7687 35.4639 75.3058 35.4639 74.7347C35.4639 74.1636 35.9255 73.7007 36.4948 73.7007C37.0642 73.7007 37.5258 74.1636 37.5258 74.7347Z" fill="white"/>
<path d="M42.6804 74.7347C42.6804 75.3058 42.2189 75.7687 41.6495 75.7687C41.0801 75.7687 40.6186 75.3058 40.6186 74.7347C40.6186 74.1636 41.0801 73.7007 41.6495 73.7007C42.2189 73.7007 42.6804 74.1636 42.6804 74.7347Z" fill="white"/>
<path d="M47.8351 74.7347C47.8351 75.3058 47.3735 75.7687 46.8041 75.7687C46.2348 75.7687 45.7732 75.3058 45.7732 74.7347C45.7732 74.1636 46.2348 73.7007 46.8041 73.7007C47.3735 73.7007 47.8351 74.1636 47.8351 74.7347Z" fill="white"/>
<path d="M52.9897 74.7347C52.9897 75.3058 52.5281 75.7687 51.9588 75.7687C51.3894 75.7687 50.9278 75.3058 50.9278 74.7347C50.9278 74.1636 51.3894 73.7007 51.9588 73.7007C52.5281 73.7007 52.9897 74.1636 52.9897 74.7347Z" fill="white"/>
<path d="M58.1443 74.7347C58.1443 75.3058 57.6828 75.7687 57.1134 75.7687C56.544 75.7687 56.0825 75.3058 56.0825 74.7347C56.0825 74.1636 56.544 73.7007 57.1134 73.7007C57.6828 73.7007 58.1443 74.1636 58.1443 74.7347Z" fill="white"/>
<path d="M63.299 74.7347C63.299 75.3058 62.8374 75.7687 62.268 75.7687C61.6987 75.7687 61.2371 75.3058 61.2371 74.7347C61.2371 74.1636 61.6987 73.7007 62.268 73.7007C62.8374 73.7007 63.299 74.1636 63.299 74.7347Z" fill="white"/>
<path d="M32.3711 79.9048C32.3711 80.4758 31.9096 80.9388 31.3402 80.9388C30.7708 80.9388 30.3093 80.4758 30.3093 79.9048C30.3093 79.3337 30.7708 78.8708 31.3402 78.8708C31.9096 78.8708 32.3711 79.3337 32.3711 79.9048Z" fill="white"/>
<path d="M37.5258 79.9048C37.5258 80.4758 37.0642 80.9388 36.4948 80.9388C35.9255 80.9388 35.4639 80.4758 35.4639 79.9048C35.4639 79.3337 35.9255 78.8708 36.4948 78.8708C37.0642 78.8708 37.5258 79.3337 37.5258 79.9048Z" fill="white"/>
<path d="M42.6804 79.9048C42.6804 80.4758 42.2189 80.9388 41.6495 80.9388C41.0801 80.9388 40.6186 80.4758 40.6186 79.9048C40.6186 79.3337 41.0801 78.8708 41.6495 78.8708C42.2189 78.8708 42.6804 79.3337 42.6804 79.9048Z" fill="white"/>
<path d="M47.8351 79.9048C47.8351 80.4758 47.3735 80.9388 46.8041 80.9388C46.2348 80.9388 45.7732 80.4758 45.7732 79.9048C45.7732 79.3337 46.2348 78.8708 46.8041 78.8708C47.3735 78.8708 47.8351 79.3337 47.8351 79.9048Z" fill="white"/>
<path d="M52.9897 79.9048C52.9897 80.4758 52.5281 80.9388 51.9588 80.9388C51.3894 80.9388 50.9278 80.4758 50.9278 79.9048C50.9278 79.3337 51.3894 78.8708 51.9588 78.8708C52.5281 78.8708 52.9897 79.3337 52.9897 79.9048Z" fill="white"/>
<path d="M58.1443 79.9048C58.1443 80.4758 57.6828 80.9388 57.1134 80.9388C56.544 80.9388 56.0825 80.4758 56.0825 79.9048C56.0825 79.3337 56.544 78.8708 57.1134 78.8708C57.6828 78.8708 58.1443 79.3337 58.1443 79.9048Z" fill="white"/>
<path d="M63.299 79.9048C63.299 80.4758 62.8374 80.9388 62.268 80.9388C61.6987 80.9388 61.2371 80.4758 61.2371 79.9048C61.2371 79.3337 61.6987 78.8708 62.268 78.8708C62.8374 78.8708 63.299 79.3337 63.299 79.9048Z" fill="white"/>
<path d="M32.3711 85.0748C32.3711 85.6459 31.9096 86.1088 31.3402 86.1088C30.7708 86.1088 30.3093 85.6459 30.3093 85.0748C30.3093 84.5038 30.7708 84.0408 31.3402 84.0408C31.9096 84.0408 32.3711 84.5038 32.3711 85.0748Z" fill="white"/>
<path d="M37.5258 85.0748C37.5258 85.6459 37.0642 86.1088 36.4948 86.1088C35.9255 86.1088 35.4639 85.6459 35.4639 85.0748C35.4639 84.5038 35.9255 84.0408 36.4948 84.0408C37.0642 84.0408 37.5258 84.5038 37.5258 85.0748Z" fill="white"/>
<path d="M42.6804 85.0748C42.6804 85.6459 42.2189 86.1088 41.6495 86.1088C41.0801 86.1088 40.6186 85.6459 40.6186 85.0748C40.6186 84.5038 41.0801 84.0408 41.6495 84.0408C42.2189 84.0408 42.6804 84.5038 42.6804 85.0748Z" fill="white"/>
<path d="M47.8351 85.0748C47.8351 85.6459 47.3735 86.1088 46.8041 86.1088C46.2348 86.1088 45.7732 85.6459 45.7732 85.0748C45.7732 84.5038 46.2348 84.0408 46.8041 84.0408C47.3735 84.0408 47.8351 84.5038 47.8351 85.0748Z" fill="white"/>
<path d="M52.9897 85.0748C52.9897 85.6459 52.5281 86.1088 51.9588 86.1088C51.3894 86.1088 50.9278 85.6459 50.9278 85.0748C50.9278 84.5038 51.3894 84.0408 51.9588 84.0408C52.5281 84.0408 52.9897 84.5038 52.9897 85.0748Z" fill="white"/>
<path d="M58.1443 85.0748C58.1443 85.6459 57.6828 86.1088 57.1134 86.1088C56.544 86.1088 56.0825 85.6459 56.0825 85.0748C56.0825 84.5038 56.544 84.0408 57.1134 84.0408C57.6828 84.0408 58.1443 84.5038 58.1443 85.0748Z" fill="white"/>
<path d="M63.299 85.0748C63.299 85.6459 62.8374 86.1088 62.268 86.1088C61.6987 86.1088 61.2371 85.6459 61.2371 85.0748C61.2371 84.5038 61.6987 84.0408 62.268 84.0408C62.8374 84.0408 63.299 84.5038 63.299 85.0748Z" fill="white"/>
<path d="M68.4536 85.0748C68.4536 85.6459 67.992 86.1088 67.4227 86.1088C66.8533 86.1088 66.3918 85.6459 66.3918 85.0748C66.3918 84.5038 66.8533 84.0408 67.4227 84.0408C67.992 84.0408 68.4536 84.5038 68.4536 85.0748Z" fill="white"/>
<path d="M27.2165 90.2449C27.2165 90.816 26.7549 91.2789 26.1856 91.2789C25.6162 91.2789 25.1546 90.816 25.1546 90.2449C25.1546 89.6738 25.6162 89.2109 26.1856 89.2109C26.7549 89.2109 27.2165 89.6738 27.2165 90.2449Z" fill="white"/>
<path d="M32.3711 90.2449C32.3711 90.816 31.9096 91.2789 31.3402 91.2789C30.7708 91.2789 30.3093 90.816 30.3093 90.2449C30.3093 89.6738 30.7708 89.2109 31.3402 89.2109C31.9096 89.2109 32.3711 89.6738 32.3711 90.2449Z" fill="white"/>
<path d="M37.5258 90.2449C37.5258 90.816 37.0642 91.2789 36.4948 91.2789C35.9255 91.2789 35.4639 90.816 35.4639 90.2449C35.4639 89.6738 35.9255 89.2109 36.4948 89.2109C37.0642 89.2109 37.5258 89.6738 37.5258 90.2449Z" fill="white"/>
<path d="M42.6804 90.2449C42.6804 90.816 42.2189 91.2789 41.6495 91.2789C41.0801 91.2789 40.6186 90.816 40.6186 90.2449C40.6186 89.6738 41.0801 89.2109 41.6495 89.2109C42.2189 89.2109 42.6804 89.6738 42.6804 90.2449Z" fill="white"/>
<path d="M47.8351 90.2449C47.8351 90.816 47.3735 91.2789 46.8041 91.2789C46.2348 91.2789 45.7732 90.816 45.7732 90.2449C45.7732 89.6738 46.2348 89.2109 46.8041 89.2109C47.3735 89.2109 47.8351 89.6738 47.8351 90.2449Z" fill="white"/>
<path d="M52.9897 90.2449C52.9897 90.816 52.5281 91.2789 51.9588 91.2789C51.3894 91.2789 50.9278 90.816 50.9278 90.2449C50.9278 89.6738 51.3894 89.2109 51.9588 89.2109C52.5281 89.2109 52.9897 89.6738 52.9897 90.2449Z" fill="white"/>
<path d="M58.1443 90.2449C58.1443 90.816 57.6828 91.2789 57.1134 91.2789C56.544 91.2789 56.0825 90.816 56.0825 90.2449C56.0825 89.6738 56.544 89.2109 57.1134 89.2109C57.6828 89.2109 58.1443 89.6738 58.1443 90.2449Z" fill="white"/>
<path d="M63.299 90.2449C63.299 90.816 62.8374 91.2789 62.268 91.2789C61.6987 91.2789 61.2371 90.816 61.2371 90.2449C61.2371 89.6738 61.6987 89.2109 62.268 89.2109C62.8374 89.2109 63.299 89.6738 63.299 90.2449Z" fill="white"/>
<path d="M68.4536 90.2449C68.4536 90.816 67.992 91.2789 67.4227 91.2789C66.8533 91.2789 66.3918 90.816 66.3918 90.2449C66.3918 89.6738 66.8533 89.2109 67.4227 89.2109C67.992 89.2109 68.4536 89.6738 68.4536 90.2449Z" fill="white"/>
<path d="M27.2165 95.415C27.2165 95.986 26.7549 96.449 26.1856 96.449C25.6162 96.449 25.1546 95.986 25.1546 95.415C25.1546 94.8439 25.6162 94.381 26.1856 94.381C26.7549 94.381 27.2165 94.8439 27.2165 95.415Z" fill="white"/>
<path d="M32.3711 95.415C32.3711 95.986 31.9096 96.449 31.3402 96.449C30.7708 96.449 30.3093 95.986 30.3093 95.415C30.3093 94.8439 30.7708 94.381 31.3402 94.381C31.9096 94.381 32.3711 94.8439 32.3711 95.415Z" fill="white"/>
<path d="M37.5258 95.415C37.5258 95.986 37.0642 96.449 36.4948 96.449C35.9255 96.449 35.4639 95.986 35.4639 95.415C35.4639 94.8439 35.9255 94.381 36.4948 94.381C37.0642 94.381 37.5258 94.8439 37.5258 95.415Z" fill="white"/>
<path d="M42.6804 95.415C42.6804 95.986 42.2189 96.449 41.6495 96.449C41.0801 96.449 40.6186 95.986 40.6186 95.415C40.6186 94.8439 41.0801 94.381 41.6495 94.381C42.2189 94.381 42.6804 94.8439 42.6804 95.415Z" fill="white"/>
<path d="M47.8351 95.415C47.8351 95.986 47.3735 96.449 46.8041 96.449C46.2348 96.449 45.7732 95.986 45.7732 95.415C45.7732 94.8439 46.2348 94.381 46.8041 94.381C47.3735 94.381 47.8351 94.8439 47.8351 95.415Z" fill="white"/>
<path d="M52.9897 95.415C52.9897 95.986 52.5281 96.449 51.9588 96.449C51.3894 96.449 50.9278 95.986 50.9278 95.415C50.9278 94.8439 51.3894 94.381 51.9588 94.381C52.5281 94.381 52.9897 94.8439 52.9897 95.415Z" fill="white"/>
<path d="M58.1443 95.415C58.1443 95.986 57.6828 96.449 57.1134 96.449C56.544 96.449 56.0825 95.986 56.0825 95.415C56.0825 94.8439 56.544 94.381 57.1134 94.381C57.6828 94.381 58.1443 94.8439 58.1443 95.415Z" fill="white"/>
<path d="M63.299 95.415C63.299 95.986 62.8374 96.449 62.268 96.449C61.6987 96.449 61.2371 95.986 61.2371 95.415C61.2371 94.8439 61.6987 94.381 62.268 94.381C62.8374 94.381 63.299 94.8439 63.299 95.415Z" fill="white"/>
<path d="M22.0619 100.585C22.0619 101.156 21.6003 101.619 21.0309 101.619C20.4616 101.619 20 101.156 20 100.585C20 100.014 20.4616 99.551 21.0309 99.551C21.6003 99.551 22.0619 100.014 22.0619 100.585Z" fill="white"/>
<path d="M27.2165 100.585C27.2165 101.156 26.7549 101.619 26.1856 101.619C25.6162 101.619 25.1546 101.156 25.1546 100.585C25.1546 100.014 25.6162 99.551 26.1856 99.551C26.7549 99.551 27.2165 100.014 27.2165 100.585Z" fill="white"/>
<path d="M32.3711 100.585C32.3711 101.156 31.9096 101.619 31.3402 101.619C30.7708 101.619 30.3093 101.156 30.3093 100.585C30.3093 100.014 30.7708 99.551 31.3402 99.551C31.9096 99.551 32.3711 100.014 32.3711 100.585Z" fill="white"/>
<path d="M37.5258 100.585C37.5258 101.156 37.0642 101.619 36.4948 101.619C35.9255 101.619 35.4639 101.156 35.4639 100.585C35.4639 100.014 35.9255 99.551 36.4948 99.551C37.0642 99.551 37.5258 100.014 37.5258 100.585Z" fill="white"/>
<path d="M42.6804 100.585C42.6804 101.156 42.2189 101.619 41.6495 101.619C41.0801 101.619 40.6186 101.156 40.6186 100.585C40.6186 100.014 41.0801 99.551 41.6495 99.551C42.2189 99.551 42.6804 100.014 42.6804 100.585Z" fill="white"/>
<path d="M47.8351 100.585C47.8351 101.156 47.3735 101.619 46.8041 101.619C46.2348 101.619 45.7732 101.156 45.7732 100.585C45.7732 100.014 46.2348 99.551 46.8041 99.551C47.3735 99.551 47.8351 100.014 47.8351 100.585Z" fill="white"/>
<path d="M52.9897 100.585C52.9897 101.156 52.5281 101.619 51.9588 101.619C51.3894 101.619 50.9278 101.156 50.9278 100.585C50.9278 100.014 51.3894 99.551 51.9588 99.551C52.5281 99.551 52.9897 100.014 52.9897 100.585Z" fill="white"/>
<path d="M58.1443 100.585C58.1443 101.156 57.6828 101.619 57.1134 101.619C56.544 101.619 56.0825 101.156 56.0825 100.585C56.0825 100.014 56.544 99.551 57.1134 99.551C57.6828 99.551 58.1443 100.014 58.1443 100.585Z" fill="white"/>
<path d="M63.299 100.585C63.299 101.156 62.8374 101.619 62.268 101.619C61.6987 101.619 61.2371 101.156 61.2371 100.585C61.2371 100.014 61.6987 99.551 62.268 99.551C62.8374 99.551 63.299 100.014 63.299 100.585Z" fill="white"/>
<path d="M22.0619 105.755C22.0619 106.326 21.6003 106.789 21.0309 106.789C20.4616 106.789 20 106.326 20 105.755C20 105.184 20.4616 104.721 21.0309 104.721C21.6003 104.721 22.0619 105.184 22.0619 105.755Z" fill="white"/>
<path d="M27.2165 105.755C27.2165 106.326 26.7549 106.789 26.1856 106.789C25.6162 106.789 25.1546 106.326 25.1546 105.755C25.1546 105.184 25.6162 104.721 26.1856 104.721C26.7549 104.721 27.2165 105.184 27.2165 105.755Z" fill="white"/>
<path d="M32.3711 105.755C32.3711 106.326 31.9096 106.789 31.3402 106.789C30.7708 106.789 30.3093 106.326 30.3093 105.755C30.3093 105.184 30.7708 104.721 31.3402 104.721C31.9096 104.721 32.3711 105.184 32.3711 105.755Z" fill="white"/>
<path d="M37.5258 105.755C37.5258 106.326 37.0642 106.789 36.4948 106.789C35.9255 106.789 35.4639 106.326 35.4639 105.755C35.4639 105.184 35.9255 104.721 36.4948 104.721C37.0642 104.721 37.5258 105.184 37.5258 105.755Z" fill="white"/>
<path d="M42.6804 105.755C42.6804 106.326 42.2189 106.789 41.6495 106.789C41.0801 106.789 40.6186 106.326 40.6186 105.755C40.6186 105.184 41.0801 104.721 41.6495 104.721C42.2189 104.721 42.6804 105.184 42.6804 105.755Z" fill="white"/>
<path d="M47.8351 105.755C47.8351 106.326 47.3735 106.789 46.8041 106.789C46.2348 106.789 45.7732 106.326 45.7732 105.755C45.7732 105.184 46.2348 104.721 46.8041 104.721C47.3735 104.721 47.8351 105.184 47.8351 105.755Z" fill="white"/>
<path d="M52.9897 105.755C52.9897 106.326 52.5281 106.789 51.9588 106.789C51.3894 106.789 50.9278 106.326 50.9278 105.755C50.9278 105.184 51.3894 104.721 51.9588 104.721C52.5281 104.721 52.9897 105.184 52.9897 105.755Z" fill="white"/>
<path d="M58.1443 105.755C58.1443 106.326 57.6828 106.789 57.1134 106.789C56.544 106.789 56.0825 106.326 56.0825 105.755C56.0825 105.184 56.544 104.721 57.1134 104.721C57.6828 104.721 58.1443 105.184 58.1443 105.755Z" fill="white"/>
<path d="M63.299 105.755C63.299 106.326 62.8374 106.789 62.268 106.789C61.6987 106.789 61.2371 106.326 61.2371 105.755C61.2371 105.184 61.6987 104.721 62.268 104.721C62.8374 104.721 63.299 105.184 63.299 105.755Z" fill="white"/>
<path d="M68.4536 105.755C68.4536 106.326 67.992 106.789 67.4227 106.789C66.8533 106.789 66.3918 106.326 66.3918 105.755C66.3918 105.184 66.8533 104.721 67.4227 104.721C67.992 104.721 68.4536 105.184 68.4536 105.755Z" fill="white"/>
<path d="M22.0619 110.925C22.0619 111.496 21.6003 111.959 21.0309 111.959C20.4616 111.959 20 111.496 20 110.925C20 110.354 20.4616 109.891 21.0309 109.891C21.6003 109.891 22.0619 110.354 22.0619 110.925Z" fill="white"/>
<path d="M27.2165 110.925C27.2165 111.496 26.7549 111.959 26.1856 111.959C25.6162 111.959 25.1546 111.496 25.1546 110.925C25.1546 110.354 25.6162 109.891 26.1856 109.891C26.7549 109.891 27.2165 110.354 27.2165 110.925Z" fill="white"/>
<path d="M32.3711 110.925C32.3711 111.496 31.9096 111.959 31.3402 111.959C30.7708 111.959 30.3093 111.496 30.3093 110.925C30.3093 110.354 30.7708 109.891 31.3402 109.891C31.9096 109.891 32.3711 110.354 32.3711 110.925Z" fill="white"/>
<path d="M37.5258 110.925C37.5258 111.496 37.0642 111.959 36.4948 111.959C35.9255 111.959 35.4639 111.496 35.4639 110.925C35.4639 110.354 35.9255 109.891 36.4948 109.891C37.0642 109.891 37.5258 110.354 37.5258 110.925Z" fill="white"/>
<path d="M42.6804 110.925C42.6804 111.496 42.2189 111.959 41.6495 111.959C41.0801 111.959 40.6186 111.496 40.6186 110.925C40.6186 110.354 41.0801 109.891 41.6495 109.891C42.2189 109.891 42.6804 110.354 42.6804 110.925Z" fill="white"/>
<path d="M47.8351 110.925C47.8351 111.496 47.3735 111.959 46.8041 111.959C46.2348 111.959 45.7732 111.496 45.7732 110.925C45.7732 110.354 46.2348 109.891 46.8041 109.891C47.3735 109.891 47.8351 110.354 47.8351 110.925Z" fill="white"/>
<path d="M52.9897 110.925C52.9897 111.496 52.5281 111.959 51.9588 111.959C51.3894 111.959 50.9278 111.496 50.9278 110.925C50.9278 110.354 51.3894 109.891 51.9588 109.891C52.5281 109.891 52.9897 110.354 52.9897 110.925Z" fill="white"/>
<path d="M58.1443 110.925C58.1443 111.496 57.6828 111.959 57.1134 111.959C56.544 111.959 56.0825 111.496 56.0825 110.925C56.0825 110.354 56.544 109.891 57.1134 109.891C57.6828 109.891 58.1443 110.354 58.1443 110.925Z" fill="white"/>
<path d="M63.299 110.925C63.299 111.496 62.8374 111.959 62.268 111.959C61.6987 111.959 61.2371 111.496 61.2371 110.925C61.2371 110.354 61.6987 109.891 62.268 109.891C62.8374 109.891 63.299 110.354 63.299 110.925Z" fill="white"/>
<path d="M68.4536 110.925C68.4536 111.496 67.992 111.959 67.4227 111.959C66.8533 111.959 66.3918 111.496 66.3918 110.925C66.3918 110.354 66.8533 109.891 67.4227 109.891C67.992 109.891 68.4536 110.354 68.4536 110.925Z" fill="white"/>
<path d="M27.2165 116.095C27.2165 116.666 26.7549 117.129 26.1856 117.129C25.6162 117.129 25.1546 116.666 25.1546 116.095C25.1546 115.524 25.6162 115.061 26.1856 115.061C26.7549 115.061 27.2165 115.524 27.2165 116.095Z" fill="white"/>
<path d="M32.3711 116.095C32.3711 116.666 31.9096 117.129 31.3402 117.129C30.7708 117.129 30.3093 116.666 30.3093 116.095C30.3093 115.524 30.7708 115.061 31.3402 115.061C31.9096 115.061 32.3711 115.524 32.3711 116.095Z" fill="white"/>
<path d="M37.5258 116.095C37.5258 116.666 37.0642 117.129 36.4948 117.129C35.9255 117.129 35.4639 116.666 35.4639 116.095C35.4639 115.524 35.9255 115.061 36.4948 115.061C37.0642 115.061 37.5258 115.524 37.5258 116.095Z" fill="white"/>
<path d="M42.6804 116.095C42.6804 116.666 42.2189 117.129 41.6495 117.129C41.0801 117.129 40.6186 116.666 40.6186 116.095C40.6186 115.524 41.0801 115.061 41.6495 115.061C42.2189 115.061 42.6804 115.524 42.6804 116.095Z" fill="white"/>
<path d="M47.8351 116.095C47.8351 116.666 47.3735 117.129 46.8041 117.129C46.2348 117.129 45.7732 116.666 45.7732 116.095C45.7732 115.524 46.2348 115.061 46.8041 115.061C47.3735 115.061 47.8351 115.524 47.8351 116.095Z" fill="white"/>
<path d="M52.9897 116.095C52.9897 116.666 52.5281 117.129 51.9588 117.129C51.3894 117.129 50.9278 116.666 50.9278 116.095C50.9278 115.524 51.3894 115.061 51.9588 115.061C52.5281 115.061 52.9897 115.524 52.9897 116.095Z" fill="white"/>
<path d="M58.1443 116.095C58.1443 116.666 57.6828 117.129 57.1134 117.129C56.544 117.129 56.0825 116.666 56.0825 116.095C56.0825 115.524 56.544 115.061 57.1134 115.061C57.6828 115.061 58.1443 115.524 58.1443 116.095Z" fill="white"/>
<path d="M63.299 116.095C63.299 116.666 62.8374 117.129 62.268 117.129C61.6987 117.129 61.2371 116.666 61.2371 116.095C61.2371 115.524 61.6987 115.061 62.268 115.061C62.8374 115.061 63.299 115.524 63.299 116.095Z" fill="white"/>
<path d="M68.4536 116.095C68.4536 116.666 67.992 117.129 67.4227 117.129C66.8533 117.129 66.3918 116.666 66.3918 116.095C66.3918 115.524 66.8533 115.061 67.4227 115.061C67.992 115.061 68.4536 115.524 68.4536 116.095Z" fill="white"/>
<path d="M52.9897 38.5442C52.9897 39.1153 52.5281 39.5782 51.9588 39.5782C51.3894 39.5782 50.9278 39.1153 50.9278 38.5442C50.9278 37.9731 51.3894 37.5102 51.9588 37.5102C52.5281 37.5102 52.9897 37.9731 52.9897 38.5442Z" fill="white"/>
<path d="M58.1443 28.2041C58.1443 28.7752 57.6828 29.2381 57.1134 29.2381C56.544 29.2381 56.0825 28.7752 56.0825 28.2041C56.0825 27.633 56.544 27.1701 57.1134 27.1701C57.6828 27.1701 58.1443 27.633 58.1443 28.2041Z" fill="white"/>
<path d="M76.6983 23.034C76.6983 23.6051 77.1598 24.068 77.7292 24.068C78.2986 24.068 78.7601 23.6051 78.7601 23.034C78.7601 22.4629 78.2986 22 77.7292 22C77.1598 22 76.6983 22.4629 76.6983 23.034Z" fill="white"/>
<path d="M71.5436 23.034C71.5436 23.6051 72.0052 24.068 72.5746 24.068C73.1439 24.068 73.6055 23.6051 73.6055 23.034C73.6055 22.4629 73.1439 22 72.5746 22C72.0052 22 71.5436 22.4629 71.5436 23.034Z" fill="white"/>
<path d="M76.6983 28.2041C76.6983 28.7752 77.1598 29.2381 77.7292 29.2381C78.2986 29.2381 78.7601 28.7752 78.7601 28.2041C78.7601 27.633 78.2986 27.1701 77.7292 27.1701C77.1598 27.1701 76.6983 27.633 76.6983 28.2041Z" fill="white"/>
<path d="M71.5436 28.2041C71.5436 28.7752 72.0052 29.2381 72.5746 29.2381C73.1439 29.2381 73.6055 28.7752 73.6055 28.2041C73.6055 27.633 73.1439 27.1701 72.5746 27.1701C72.0052 27.1701 71.5436 27.633 71.5436 28.2041Z" fill="white"/>
<path d="M81.8529 33.3742C81.8529 33.9452 82.3145 34.4082 82.8839 34.4082C83.4532 34.4082 83.9148 33.9452 83.9148 33.3742C83.9148 32.8031 83.4532 32.3401 82.8839 32.3401C82.3145 32.3401 81.8529 32.8031 81.8529 33.3742Z" fill="white"/>
<path d="M76.6983 33.3742C76.6983 33.9452 77.1598 34.4082 77.7292 34.4082C78.2986 34.4082 78.7601 33.9452 78.7601 33.3742C78.7601 32.8031 78.2986 32.3401 77.7292 32.3401C77.1598 32.3401 76.6983 32.8031 76.6983 33.3742Z" fill="white"/>
<path d="M71.5436 33.3742C71.5436 33.9452 72.0052 34.4082 72.5746 34.4082C73.1439 34.4082 73.6055 33.9452 73.6055 33.3742C73.6055 32.8031 73.1439 32.3401 72.5746 32.3401C72.0052 32.3401 71.5436 32.8031 71.5436 33.3742Z" fill="white"/>
<path d="M81.8529 38.5442C81.8529 39.1153 82.3145 39.5782 82.8839 39.5782C83.4532 39.5782 83.9148 39.1153 83.9148 38.5442C83.9148 37.9731 83.4532 37.5102 82.8839 37.5102C82.3145 37.5102 81.8529 37.9731 81.8529 38.5442Z" fill="white"/>
<path d="M76.6983 38.5442C76.6983 39.1153 77.1598 39.5782 77.7292 39.5782C78.2986 39.5782 78.7601 39.1153 78.7601 38.5442C78.7601 37.9731 78.2986 37.5102 77.7292 37.5102C77.1598 37.5102 76.6983 37.9731 76.6983 38.5442Z" fill="white"/>
<path d="M71.5436 38.5442C71.5436 39.1153 72.0052 39.5782 72.5746 39.5782C73.1439 39.5782 73.6055 39.1153 73.6055 38.5442C73.6055 37.9731 73.1439 37.5102 72.5746 37.5102C72.0052 37.5102 71.5436 37.9731 71.5436 38.5442Z" fill="white"/>
<path d="M87.0076 43.7143C87.0076 44.2854 87.4691 44.7483 88.0385 44.7483C88.6079 44.7483 89.0694 44.2854 89.0694 43.7143C89.0694 43.1432 88.6079 42.6803 88.0385 42.6803C87.4691 42.6803 87.0076 43.1432 87.0076 43.7143Z" fill="white"/>
<path d="M81.8529 43.7143C81.8529 44.2854 82.3145 44.7483 82.8839 44.7483C83.4532 44.7483 83.9148 44.2854 83.9148 43.7143C83.9148 43.1432 83.4532 42.6803 82.8839 42.6803C82.3145 42.6803 81.8529 43.1432 81.8529 43.7143Z" fill="white"/>
<path d="M76.6983 43.7143C76.6983 44.2854 77.1598 44.7483 77.7292 44.7483C78.2986 44.7483 78.7601 44.2854 78.7601 43.7143C78.7601 43.1432 78.2986 42.6803 77.7292 42.6803C77.1598 42.6803 76.6983 43.1432 76.6983 43.7143Z" fill="white"/>
<path d="M71.5436 43.7143C71.5436 44.2854 72.0052 44.7483 72.5746 44.7483C73.1439 44.7483 73.6055 44.2854 73.6055 43.7143C73.6055 43.1432 73.1439 42.6803 72.5746 42.6803C72.0052 42.6803 71.5436 43.1432 71.5436 43.7143Z" fill="white"/>
<path d="M92.1622 48.8844C92.1622 49.4554 92.6238 49.9184 93.1931 49.9184C93.7625 49.9184 94.2241 49.4554 94.2241 48.8844C94.2241 48.3133 93.7625 47.8503 93.1931 47.8503C92.6238 47.8503 92.1622 48.3133 92.1622 48.8844Z" fill="white"/>
<path d="M87.0076 48.8844C87.0076 49.4554 87.4691 49.9184 88.0385 49.9184C88.6079 49.9184 89.0694 49.4554 89.0694 48.8844C89.0694 48.3133 88.6079 47.8503 88.0385 47.8503C87.4691 47.8503 87.0076 48.3133 87.0076 48.8844Z" fill="white"/>
<path d="M81.8529 48.8844C81.8529 49.4554 82.3145 49.9184 82.8839 49.9184C83.4532 49.9184 83.9148 49.4554 83.9148 48.8844C83.9148 48.3133 83.4532 47.8503 82.8839 47.8503C82.3145 47.8503 81.8529 48.3133 81.8529 48.8844Z" fill="white"/>
<path d="M76.6983 48.8844C76.6983 49.4554 77.1598 49.9184 77.7292 49.9184C78.2986 49.9184 78.7601 49.4554 78.7601 48.8844C78.7601 48.3133 78.2986 47.8503 77.7292 47.8503C77.1598 47.8503 76.6983 48.3133 76.6983 48.8844Z" fill="white"/>
<path d="M71.5436 48.8844C71.5436 49.4554 72.0052 49.9184 72.5746 49.9184C73.1439 49.9184 73.6055 49.4554 73.6055 48.8844C73.6055 48.3133 73.1439 47.8503 72.5746 47.8503C72.0052 47.8503 71.5436 48.3133 71.5436 48.8844Z" fill="white"/>
<path d="M92.1622 54.0544C92.1622 54.6255 92.6238 55.0884 93.1931 55.0884C93.7625 55.0884 94.2241 54.6255 94.2241 54.0544C94.2241 53.4834 93.7625 53.0204 93.1931 53.0204C92.6238 53.0204 92.1622 53.4834 92.1622 54.0544Z" fill="white"/>
<path d="M87.0076 54.0544C87.0076 54.6255 87.4691 55.0884 88.0385 55.0884C88.6079 55.0884 89.0694 54.6255 89.0694 54.0544C89.0694 53.4834 88.6079 53.0204 88.0385 53.0204C87.4691 53.0204 87.0076 53.4834 87.0076 54.0544Z" fill="white"/>
<path d="M81.8529 54.0544C81.8529 54.6255 82.3145 55.0884 82.8839 55.0884C83.4532 55.0884 83.9148 54.6255 83.9148 54.0544C83.9148 53.4834 83.4532 53.0204 82.8839 53.0204C82.3145 53.0204 81.8529 53.4834 81.8529 54.0544Z" fill="white"/>
<path d="M76.6983 54.0544C76.6983 54.6255 77.1598 55.0884 77.7292 55.0884C78.2986 55.0884 78.7601 54.6255 78.7601 54.0544C78.7601 53.4834 78.2986 53.0204 77.7292 53.0204C77.1598 53.0204 76.6983 53.4834 76.6983 54.0544Z" fill="white"/>
<path d="M97.3168 59.2245C97.3168 59.7956 97.7784 60.2585 98.3478 60.2585C98.9171 60.2585 99.3787 59.7956 99.3787 59.2245C99.3787 58.6534 98.9171 58.1905 98.3478 58.1905C97.7784 58.1905 97.3168 58.6534 97.3168 59.2245Z" fill="white"/>
<path d="M92.1622 59.2245C92.1622 59.7956 92.6238 60.2585 93.1931 60.2585C93.7625 60.2585 94.2241 59.7956 94.2241 59.2245C94.2241 58.6534 93.7625 58.1905 93.1931 58.1905C92.6238 58.1905 92.1622 58.6534 92.1622 59.2245Z" fill="white"/>
<path d="M87.0076 59.2245C87.0076 59.7956 87.4691 60.2585 88.0385 60.2585C88.6079 60.2585 89.0694 59.7956 89.0694 59.2245C89.0694 58.6534 88.6079 58.1905 88.0385 58.1905C87.4691 58.1905 87.0076 58.6534 87.0076 59.2245Z" fill="white"/>
<path d="M81.8529 59.2245C81.8529 59.7956 82.3145 60.2585 82.8839 60.2585C83.4532 60.2585 83.9148 59.7956 83.9148 59.2245C83.9148 58.6534 83.4532 58.1905 82.8839 58.1905C82.3145 58.1905 81.8529 58.6534 81.8529 59.2245Z" fill="white"/>
<path d="M76.6983 59.2245C76.6983 59.7956 77.1598 60.2585 77.7292 60.2585C78.2986 60.2585 78.7601 59.7956 78.7601 59.2245C78.7601 58.6534 78.2986 58.1905 77.7292 58.1905C77.1598 58.1905 76.6983 58.6534 76.6983 59.2245Z" fill="white"/>
<path d="M97.3168 64.3946C97.3168 64.9656 97.7784 65.4286 98.3478 65.4286C98.9171 65.4286 99.3787 64.9656 99.3787 64.3946C99.3787 63.8235 98.9171 63.3605 98.3478 63.3605C97.7784 63.3605 97.3168 63.8235 97.3168 64.3946Z" fill="white"/>
<path d="M92.1622 64.3946C92.1622 64.9656 92.6238 65.4286 93.1931 65.4286C93.7625 65.4286 94.2241 64.9656 94.2241 64.3946C94.2241 63.8235 93.7625 63.3605 93.1931 63.3605C92.6238 63.3605 92.1622 63.8235 92.1622 64.3946Z" fill="white"/>
<path d="M87.0076 64.3946C87.0076 64.9656 87.4691 65.4286 88.0385 65.4286C88.6079 65.4286 89.0694 64.9656 89.0694 64.3946C89.0694 63.8235 88.6079 63.3605 88.0385 63.3605C87.4691 63.3605 87.0076 63.8235 87.0076 64.3946Z" fill="white"/>
<path d="M81.8529 64.3946C81.8529 64.9656 82.3145 65.4286 82.8839 65.4286C83.4532 65.4286 83.9148 64.9656 83.9148 64.3946C83.9148 63.8235 83.4532 63.3605 82.8839 63.3605C82.3145 63.3605 81.8529 63.8235 81.8529 64.3946Z" fill="white"/>
<path d="M76.6983 64.3946C76.6983 64.9656 77.1598 65.4286 77.7292 65.4286C78.2986 65.4286 78.7601 64.9656 78.7601 64.3946C78.7601 63.8235 78.2986 63.3605 77.7292 63.3605C77.1598 63.3605 76.6983 63.8235 76.6983 64.3946Z" fill="white"/>
<path d="M102.471 69.5646C102.471 70.1357 102.933 70.5986 103.502 70.5986C104.072 70.5986 104.533 70.1357 104.533 69.5646C104.533 68.9936 104.072 68.5306 103.502 68.5306C102.933 68.5306 102.471 68.9936 102.471 69.5646Z" fill="white"/>
<path d="M97.3168 69.5646C97.3168 70.1357 97.7784 70.5986 98.3478 70.5986C98.9171 70.5986 99.3787 70.1357 99.3787 69.5646C99.3787 68.9936 98.9171 68.5306 98.3478 68.5306C97.7784 68.5306 97.3168 68.9936 97.3168 69.5646Z" fill="white"/>
<path d="M92.1622 69.5646C92.1622 70.1357 92.6238 70.5986 93.1931 70.5986C93.7625 70.5986 94.2241 70.1357 94.2241 69.5646C94.2241 68.9936 93.7625 68.5306 93.1931 68.5306C92.6238 68.5306 92.1622 68.9936 92.1622 69.5646Z" fill="white"/>
<path d="M87.0076 69.5646C87.0076 70.1357 87.4691 70.5986 88.0385 70.5986C88.6079 70.5986 89.0694 70.1357 89.0694 69.5646C89.0694 68.9936 88.6079 68.5306 88.0385 68.5306C87.4691 68.5306 87.0076 68.9936 87.0076 69.5646Z" fill="white"/>
<path d="M81.8529 69.5646C81.8529 70.1357 82.3145 70.5986 82.8839 70.5986C83.4532 70.5986 83.9148 70.1357 83.9148 69.5646C83.9148 68.9936 83.4532 68.5306 82.8839 68.5306C82.3145 68.5306 81.8529 68.9936 81.8529 69.5646Z" fill="white"/>
<path d="M76.6983 69.5646C76.6983 70.1357 77.1598 70.5986 77.7292 70.5986C78.2986 70.5986 78.7601 70.1357 78.7601 69.5646C78.7601 68.9936 78.2986 68.5306 77.7292 68.5306C77.1598 68.5306 76.6983 68.9936 76.6983 69.5646Z" fill="white"/>
<path d="M102.471 74.7347C102.471 75.3058 102.933 75.7687 103.502 75.7687C104.072 75.7687 104.533 75.3058 104.533 74.7347C104.533 74.1636 104.072 73.7007 103.502 73.7007C102.933 73.7007 102.471 74.1636 102.471 74.7347Z" fill="white"/>
<path d="M97.3168 74.7347C97.3168 75.3058 97.7784 75.7687 98.3478 75.7687C98.9171 75.7687 99.3787 75.3058 99.3787 74.7347C99.3787 74.1636 98.9171 73.7007 98.3478 73.7007C97.7784 73.7007 97.3168 74.1636 97.3168 74.7347Z" fill="white"/>
<path d="M92.1622 74.7347C92.1622 75.3058 92.6238 75.7687 93.1931 75.7687C93.7625 75.7687 94.2241 75.3058 94.2241 74.7347C94.2241 74.1636 93.7625 73.7007 93.1931 73.7007C92.6238 73.7007 92.1622 74.1636 92.1622 74.7347Z" fill="white"/>
<path d="M87.0076 74.7347C87.0076 75.3058 87.4691 75.7687 88.0385 75.7687C88.6079 75.7687 89.0694 75.3058 89.0694 74.7347C89.0694 74.1636 88.6079 73.7007 88.0385 73.7007C87.4691 73.7007 87.0076 74.1636 87.0076 74.7347Z" fill="white"/>
<path d="M81.8529 74.7347C81.8529 75.3058 82.3145 75.7687 82.8839 75.7687C83.4532 75.7687 83.9148 75.3058 83.9148 74.7347C83.9148 74.1636 83.4532 73.7007 82.8839 73.7007C82.3145 73.7007 81.8529 74.1636 81.8529 74.7347Z" fill="white"/>
<path d="M76.6983 74.7347C76.6983 75.3058 77.1598 75.7687 77.7292 75.7687C78.2986 75.7687 78.7601 75.3058 78.7601 74.7347C78.7601 74.1636 78.2986 73.7007 77.7292 73.7007C77.1598 73.7007 76.6983 74.1636 76.6983 74.7347Z" fill="white"/>
<path d="M107.626 79.9048C107.626 80.4758 108.088 80.9388 108.657 80.9388C109.226 80.9388 109.688 80.4758 109.688 79.9048C109.688 79.3337 109.226 78.8708 108.657 78.8708C108.088 78.8708 107.626 79.3337 107.626 79.9048Z" fill="white"/>
<path d="M102.471 79.9048C102.471 80.4758 102.933 80.9388 103.502 80.9388C104.072 80.9388 104.533 80.4758 104.533 79.9048C104.533 79.3337 104.072 78.8708 103.502 78.8708C102.933 78.8708 102.471 79.3337 102.471 79.9048Z" fill="white"/>
<path d="M97.3168 79.9048C97.3168 80.4758 97.7784 80.9388 98.3478 80.9388C98.9171 80.9388 99.3787 80.4758 99.3787 79.9048C99.3787 79.3337 98.9171 78.8708 98.3478 78.8708C97.7784 78.8708 97.3168 79.3337 97.3168 79.9048Z" fill="white"/>
<path d="M92.1622 79.9048C92.1622 80.4758 92.6238 80.9388 93.1931 80.9388C93.7625 80.9388 94.2241 80.4758 94.2241 79.9048C94.2241 79.3337 93.7625 78.8708 93.1931 78.8708C92.6238 78.8708 92.1622 79.3337 92.1622 79.9048Z" fill="white"/>
<path d="M87.0076 79.9048C87.0076 80.4758 87.4691 80.9388 88.0385 80.9388C88.6079 80.9388 89.0694 80.4758 89.0694 79.9048C89.0694 79.3337 88.6079 78.8708 88.0385 78.8708C87.4691 78.8708 87.0076 79.3337 87.0076 79.9048Z" fill="white"/>
<path d="M81.8529 79.9048C81.8529 80.4758 82.3145 80.9388 82.8839 80.9388C83.4532 80.9388 83.9148 80.4758 83.9148 79.9048C83.9148 79.3337 83.4532 78.8708 82.8839 78.8708C82.3145 78.8708 81.8529 79.3337 81.8529 79.9048Z" fill="white"/>
<path d="M76.6983 79.9048C76.6983 80.4758 77.1598 80.9388 77.7292 80.9388C78.2986 80.9388 78.7601 80.4758 78.7601 79.9048C78.7601 79.3337 78.2986 78.8708 77.7292 78.8708C77.1598 78.8708 76.6983 79.3337 76.6983 79.9048Z" fill="white"/>
<path d="M107.626 85.0748C107.626 85.6459 108.088 86.1088 108.657 86.1088C109.226 86.1088 109.688 85.6459 109.688 85.0748C109.688 84.5038 109.226 84.0408 108.657 84.0408C108.088 84.0408 107.626 84.5038 107.626 85.0748Z" fill="white"/>
<path d="M102.471 85.0748C102.471 85.6459 102.933 86.1088 103.502 86.1088C104.072 86.1088 104.533 85.6459 104.533 85.0748C104.533 84.5038 104.072 84.0408 103.502 84.0408C102.933 84.0408 102.471 84.5038 102.471 85.0748Z" fill="white"/>
<path d="M97.3168 85.0748C97.3168 85.6459 97.7784 86.1088 98.3478 86.1088C98.9171 86.1088 99.3787 85.6459 99.3787 85.0748C99.3787 84.5038 98.9171 84.0408 98.3478 84.0408C97.7784 84.0408 97.3168 84.5038 97.3168 85.0748Z" fill="white"/>
<path d="M92.1622 85.0748C92.1622 85.6459 92.6238 86.1088 93.1931 86.1088C93.7625 86.1088 94.2241 85.6459 94.2241 85.0748C94.2241 84.5038 93.7625 84.0408 93.1931 84.0408C92.6238 84.0408 92.1622 84.5038 92.1622 85.0748Z" fill="white"/>
<path d="M87.0076 85.0748C87.0076 85.6459 87.4691 86.1088 88.0385 86.1088C88.6079 86.1088 89.0694 85.6459 89.0694 85.0748C89.0694 84.5038 88.6079 84.0408 88.0385 84.0408C87.4691 84.0408 87.0076 84.5038 87.0076 85.0748Z" fill="white"/>
<path d="M81.8529 85.0748C81.8529 85.6459 82.3145 86.1088 82.8839 86.1088C83.4532 86.1088 83.9148 85.6459 83.9148 85.0748C83.9148 84.5038 83.4532 84.0408 82.8839 84.0408C82.3145 84.0408 81.8529 84.5038 81.8529 85.0748Z" fill="white"/>
<path d="M76.6983 85.0748C76.6983 85.6459 77.1598 86.1088 77.7292 86.1088C78.2986 86.1088 78.7601 85.6459 78.7601 85.0748C78.7601 84.5038 78.2986 84.0408 77.7292 84.0408C77.1598 84.0408 76.6983 84.5038 76.6983 85.0748Z" fill="white"/>
<path d="M71.5436 85.0748C71.5436 85.6459 72.0052 86.1088 72.5746 86.1088C73.1439 86.1088 73.6055 85.6459 73.6055 85.0748C73.6055 84.5038 73.1439 84.0408 72.5746 84.0408C72.0052 84.0408 71.5436 84.5038 71.5436 85.0748Z" fill="white"/>
<path d="M112.781 90.2449C112.781 90.816 113.242 91.2789 113.812 91.2789C114.381 91.2789 114.843 90.816 114.843 90.2449C114.843 89.6738 114.381 89.2109 113.812 89.2109C113.242 89.2109 112.781 89.6738 112.781 90.2449Z" fill="white"/>
<path d="M107.626 90.2449C107.626 90.816 108.088 91.2789 108.657 91.2789C109.226 91.2789 109.688 90.816 109.688 90.2449C109.688 89.6738 109.226 89.2109 108.657 89.2109C108.088 89.2109 107.626 89.6738 107.626 90.2449Z" fill="white"/>
<path d="M102.471 90.2449C102.471 90.816 102.933 91.2789 103.502 91.2789C104.072 91.2789 104.533 90.816 104.533 90.2449C104.533 89.6738 104.072 89.2109 103.502 89.2109C102.933 89.2109 102.471 89.6738 102.471 90.2449Z" fill="white"/>
<path d="M97.3168 90.2449C97.3168 90.816 97.7784 91.2789 98.3478 91.2789C98.9171 91.2789 99.3787 90.816 99.3787 90.2449C99.3787 89.6738 98.9171 89.2109 98.3478 89.2109C97.7784 89.2109 97.3168 89.6738 97.3168 90.2449Z" fill="white"/>
<path d="M92.1622 90.2449C92.1622 90.816 92.6238 91.2789 93.1931 91.2789C93.7625 91.2789 94.2241 90.816 94.2241 90.2449C94.2241 89.6738 93.7625 89.2109 93.1931 89.2109C92.6238 89.2109 92.1622 89.6738 92.1622 90.2449Z" fill="white"/>
<path d="M87.0076 90.2449C87.0076 90.816 87.4691 91.2789 88.0385 91.2789C88.6079 91.2789 89.0694 90.816 89.0694 90.2449C89.0694 89.6738 88.6079 89.2109 88.0385 89.2109C87.4691 89.2109 87.0076 89.6738 87.0076 90.2449Z" fill="white"/>
<path d="M81.8529 90.2449C81.8529 90.816 82.3145 91.2789 82.8839 91.2789C83.4532 91.2789 83.9148 90.816 83.9148 90.2449C83.9148 89.6738 83.4532 89.2109 82.8839 89.2109C82.3145 89.2109 81.8529 89.6738 81.8529 90.2449Z" fill="white"/>
<path d="M76.6983 90.2449C76.6983 90.816 77.1598 91.2789 77.7292 91.2789C78.2986 91.2789 78.7601 90.816 78.7601 90.2449C78.7601 89.6738 78.2986 89.2109 77.7292 89.2109C77.1598 89.2109 76.6983 89.6738 76.6983 90.2449Z" fill="white"/>
<path d="M71.5436 90.2449C71.5436 90.816 72.0052 91.2789 72.5746 91.2789C73.1439 91.2789 73.6055 90.816 73.6055 90.2449C73.6055 89.6738 73.1439 89.2109 72.5746 89.2109C72.0052 89.2109 71.5436 89.6738 71.5436 90.2449Z" fill="white"/>
<path d="M112.781 95.415C112.781 95.986 113.242 96.449 113.812 96.449C114.381 96.449 114.843 95.986 114.843 95.415C114.843 94.8439 114.381 94.381 113.812 94.381C113.242 94.381 112.781 94.8439 112.781 95.415Z" fill="white"/>
<path d="M107.626 95.415C107.626 95.986 108.088 96.449 108.657 96.449C109.226 96.449 109.688 95.986 109.688 95.415C109.688 94.8439 109.226 94.381 108.657 94.381C108.088 94.381 107.626 94.8439 107.626 95.415Z" fill="white"/>
<path d="M102.471 95.415C102.471 95.986 102.933 96.449 103.502 96.449C104.072 96.449 104.533 95.986 104.533 95.415C104.533 94.8439 104.072 94.381 103.502 94.381C102.933 94.381 102.471 94.8439 102.471 95.415Z" fill="white"/>
<path d="M97.3168 95.415C97.3168 95.986 97.7784 96.449 98.3478 96.449C98.9171 96.449 99.3787 95.986 99.3787 95.415C99.3787 94.8439 98.9171 94.381 98.3478 94.381C97.7784 94.381 97.3168 94.8439 97.3168 95.415Z" fill="white"/>
<path d="M92.1622 95.415C92.1622 95.986 92.6238 96.449 93.1931 96.449C93.7625 96.449 94.2241 95.986 94.2241 95.415C94.2241 94.8439 93.7625 94.381 93.1931 94.381C92.6238 94.381 92.1622 94.8439 92.1622 95.415Z" fill="white"/>
<path d="M87.0076 95.415C87.0076 95.986 87.4691 96.449 88.0385 96.449C88.6079 96.449 89.0694 95.986 89.0694 95.415C89.0694 94.8439 88.6079 94.381 88.0385 94.381C87.4691 94.381 87.0076 94.8439 87.0076 95.415Z" fill="white"/>
<path d="M81.8529 95.415C81.8529 95.986 82.3145 96.449 82.8839 96.449C83.4532 96.449 83.9148 95.986 83.9148 95.415C83.9148 94.8439 83.4532 94.381 82.8839 94.381C82.3145 94.381 81.8529 94.8439 81.8529 95.415Z" fill="white"/>
<path d="M76.6983 95.415C76.6983 95.986 77.1598 96.449 77.7292 96.449C78.2986 96.449 78.7601 95.986 78.7601 95.415C78.7601 94.8439 78.2986 94.381 77.7292 94.381C77.1598 94.381 76.6983 94.8439 76.6983 95.415Z" fill="white"/>
<path d="M117.935 100.585C117.935 101.156 118.397 101.619 118.966 101.619C119.536 101.619 119.997 101.156 119.997 100.585C119.997 100.014 119.536 99.551 118.966 99.551C118.397 99.551 117.935 100.014 117.935 100.585Z" fill="white"/>
<path d="M112.781 100.585C112.781 101.156 113.242 101.619 113.812 101.619C114.381 101.619 114.843 101.156 114.843 100.585C114.843 100.014 114.381 99.551 113.812 99.551C113.242 99.551 112.781 100.014 112.781 100.585Z" fill="white"/>
<path d="M107.626 100.585C107.626 101.156 108.088 101.619 108.657 101.619C109.226 101.619 109.688 101.156 109.688 100.585C109.688 100.014 109.226 99.551 108.657 99.551C108.088 99.551 107.626 100.014 107.626 100.585Z" fill="white"/>
<path d="M102.471 100.585C102.471 101.156 102.933 101.619 103.502 101.619C104.072 101.619 104.533 101.156 104.533 100.585C104.533 100.014 104.072 99.551 103.502 99.551C102.933 99.551 102.471 100.014 102.471 100.585Z" fill="white"/>
<path d="M97.3168 100.585C97.3168 101.156 97.7784 101.619 98.3478 101.619C98.9171 101.619 99.3787 101.156 99.3787 100.585C99.3787 100.014 98.9171 99.551 98.3478 99.551C97.7784 99.551 97.3168 100.014 97.3168 100.585Z" fill="white"/>
<path d="M92.1622 100.585C92.1622 101.156 92.6238 101.619 93.1931 101.619C93.7625 101.619 94.2241 101.156 94.2241 100.585C94.2241 100.014 93.7625 99.551 93.1931 99.551C92.6238 99.551 92.1622 100.014 92.1622 100.585Z" fill="white"/>
<path d="M87.0076 100.585C87.0076 101.156 87.4691 101.619 88.0385 101.619C88.6079 101.619 89.0694 101.156 89.0694 100.585C89.0694 100.014 88.6079 99.551 88.0385 99.551C87.4691 99.551 87.0076 100.014 87.0076 100.585Z" fill="white"/>
<path d="M81.8529 100.585C81.8529 101.156 82.3145 101.619 82.8839 101.619C83.4532 101.619 83.9148 101.156 83.9148 100.585C83.9148 100.014 83.4532 99.551 82.8839 99.551C82.3145 99.551 81.8529 100.014 81.8529 100.585Z" fill="white"/>
<path d="M76.6983 100.585C76.6983 101.156 77.1598 101.619 77.7292 101.619C78.2986 101.619 78.7601 101.156 78.7601 100.585C78.7601 100.014 78.2986 99.551 77.7292 99.551C77.1598 99.551 76.6983 100.014 76.6983 100.585Z" fill="white"/>
<path d="M117.935 105.755C117.935 106.326 118.397 106.789 118.966 106.789C119.536 106.789 119.997 106.326 119.997 105.755C119.997 105.184 119.536 104.721 118.966 104.721C118.397 104.721 117.935 105.184 117.935 105.755Z" fill="white"/>
<path d="M112.781 105.755C112.781 106.326 113.242 106.789 113.812 106.789C114.381 106.789 114.843 106.326 114.843 105.755C114.843 105.184 114.381 104.721 113.812 104.721C113.242 104.721 112.781 105.184 112.781 105.755Z" fill="white"/>
<path d="M107.626 105.755C107.626 106.326 108.088 106.789 108.657 106.789C109.226 106.789 109.688 106.326 109.688 105.755C109.688 105.184 109.226 104.721 108.657 104.721C108.088 104.721 107.626 105.184 107.626 105.755Z" fill="white"/>
<path d="M102.471 105.755C102.471 106.326 102.933 106.789 103.502 106.789C104.072 106.789 104.533 106.326 104.533 105.755C104.533 105.184 104.072 104.721 103.502 104.721C102.933 104.721 102.471 105.184 102.471 105.755Z" fill="white"/>
<path d="M97.3168 105.755C97.3168 106.326 97.7784 106.789 98.3478 106.789C98.9171 106.789 99.3787 106.326 99.3787 105.755C99.3787 105.184 98.9171 104.721 98.3478 104.721C97.7784 104.721 97.3168 105.184 97.3168 105.755Z" fill="white"/>
<path d="M92.1622 105.755C92.1622 106.326 92.6238 106.789 93.1931 106.789C93.7625 106.789 94.2241 106.326 94.2241 105.755C94.2241 105.184 93.7625 104.721 93.1931 104.721C92.6238 104.721 92.1622 105.184 92.1622 105.755Z" fill="white"/>
<path d="M87.0076 105.755C87.0076 106.326 87.4691 106.789 88.0385 106.789C88.6079 106.789 89.0694 106.326 89.0694 105.755C89.0694 105.184 88.6079 104.721 88.0385 104.721C87.4691 104.721 87.0076 105.184 87.0076 105.755Z" fill="white"/>
<path d="M81.8529 105.755C81.8529 106.326 82.3145 106.789 82.8839 106.789C83.4532 106.789 83.9148 106.326 83.9148 105.755C83.9148 105.184 83.4532 104.721 82.8839 104.721C82.3145 104.721 81.8529 105.184 81.8529 105.755Z" fill="white"/>
<path d="M76.6983 105.755C76.6983 106.326 77.1598 106.789 77.7292 106.789C78.2986 106.789 78.7601 106.326 78.7601 105.755C78.7601 105.184 78.2986 104.721 77.7292 104.721C77.1598 104.721 76.6983 105.184 76.6983 105.755Z" fill="white"/>
<path d="M71.5436 105.755C71.5436 106.326 72.0052 106.789 72.5746 106.789C73.1439 106.789 73.6055 106.326 73.6055 105.755C73.6055 105.184 73.1439 104.721 72.5746 104.721C72.0052 104.721 71.5436 105.184 71.5436 105.755Z" fill="white"/>
<path d="M117.935 110.925C117.935 111.496 118.397 111.959 118.966 111.959C119.536 111.959 119.997 111.496 119.997 110.925C119.997 110.354 119.536 109.891 118.966 109.891C118.397 109.891 117.935 110.354 117.935 110.925Z" fill="white"/>
<path d="M112.781 110.925C112.781 111.496 113.242 111.959 113.812 111.959C114.381 111.959 114.843 111.496 114.843 110.925C114.843 110.354 114.381 109.891 113.812 109.891C113.242 109.891 112.781 110.354 112.781 110.925Z" fill="white"/>
<path d="M107.626 110.925C107.626 111.496 108.088 111.959 108.657 111.959C109.226 111.959 109.688 111.496 109.688 110.925C109.688 110.354 109.226 109.891 108.657 109.891C108.088 109.891 107.626 110.354 107.626 110.925Z" fill="white"/>
<path d="M102.471 110.925C102.471 111.496 102.933 111.959 103.502 111.959C104.072 111.959 104.533 111.496 104.533 110.925C104.533 110.354 104.072 109.891 103.502 109.891C102.933 109.891 102.471 110.354 102.471 110.925Z" fill="white"/>
<path d="M97.3168 110.925C97.3168 111.496 97.7784 111.959 98.3478 111.959C98.9171 111.959 99.3787 111.496 99.3787 110.925C99.3787 110.354 98.9171 109.891 98.3478 109.891C97.7784 109.891 97.3168 110.354 97.3168 110.925Z" fill="white"/>
<path d="M92.1622 110.925C92.1622 111.496 92.6238 111.959 93.1931 111.959C93.7625 111.959 94.2241 111.496 94.2241 110.925C94.2241 110.354 93.7625 109.891 93.1931 109.891C92.6238 109.891 92.1622 110.354 92.1622 110.925Z" fill="white"/>
<path d="M87.0076 110.925C87.0076 111.496 87.4691 111.959 88.0385 111.959C88.6079 111.959 89.0694 111.496 89.0694 110.925C89.0694 110.354 88.6079 109.891 88.0385 109.891C87.4691 109.891 87.0076 110.354 87.0076 110.925Z" fill="white"/>
<path d="M81.8529 110.925C81.8529 111.496 82.3145 111.959 82.8839 111.959C83.4532 111.959 83.9148 111.496 83.9148 110.925C83.9148 110.354 83.4532 109.891 82.8839 109.891C82.3145 109.891 81.8529 110.354 81.8529 110.925Z" fill="white"/>
<path d="M76.6983 110.925C76.6983 111.496 77.1598 111.959 77.7292 111.959C78.2986 111.959 78.7601 111.496 78.7601 110.925C78.7601 110.354 78.2986 109.891 77.7292 109.891C77.1598 109.891 76.6983 110.354 76.6983 110.925Z" fill="white"/>
<path d="M71.5436 110.925C71.5436 111.496 72.0052 111.959 72.5746 111.959C73.1439 111.959 73.6055 111.496 73.6055 110.925C73.6055 110.354 73.1439 109.891 72.5746 109.891C72.0052 109.891 71.5436 110.354 71.5436 110.925Z" fill="white"/>
<path d="M112.781 116.095C112.781 116.666 113.242 117.129 113.812 117.129C114.381 117.129 114.843 116.666 114.843 116.095C114.843 115.524 114.381 115.061 113.812 115.061C113.242 115.061 112.781 115.524 112.781 116.095Z" fill="white"/>
<path d="M107.626 116.095C107.626 116.666 108.088 117.129 108.657 117.129C109.226 117.129 109.688 116.666 109.688 116.095C109.688 115.524 109.226 115.061 108.657 115.061C108.088 115.061 107.626 115.524 107.626 116.095Z" fill="white"/>
<path d="M102.471 116.095C102.471 116.666 102.933 117.129 103.502 117.129C104.072 117.129 104.533 116.666 104.533 116.095C104.533 115.524 104.072 115.061 103.502 115.061C102.933 115.061 102.471 115.524 102.471 116.095Z" fill="white"/>
<path d="M97.3168 116.095C97.3168 116.666 97.7784 117.129 98.3478 117.129C98.9171 117.129 99.3787 116.666 99.3787 116.095C99.3787 115.524 98.9171 115.061 98.3478 115.061C97.7784 115.061 97.3168 115.524 97.3168 116.095Z" fill="white"/>
<path d="M92.1622 116.095C92.1622 116.666 92.6238 117.129 93.1931 117.129C93.7625 117.129 94.2241 116.666 94.2241 116.095C94.2241 115.524 93.7625 115.061 93.1931 115.061C92.6238 115.061 92.1622 115.524 92.1622 116.095Z" fill="white"/>
<path d="M87.0076 116.095C87.0076 116.666 87.4691 117.129 88.0385 117.129C88.6079 117.129 89.0694 116.666 89.0694 116.095C89.0694 115.524 88.6079 115.061 88.0385 115.061C87.4691 115.061 87.0076 115.524 87.0076 116.095Z" fill="white"/>
<path d="M81.8529 116.095C81.8529 116.666 82.3145 117.129 82.8839 117.129C83.4532 117.129 83.9148 116.666 83.9148 116.095C83.9148 115.524 83.4532 115.061 82.8839 115.061C82.3145 115.061 81.8529 115.524 81.8529 116.095Z" fill="white"/>
<path d="M76.6983 116.095C76.6983 116.666 77.1598 117.129 77.7292 117.129C78.2986 117.129 78.7601 116.666 78.7601 116.095C78.7601 115.524 78.2986 115.061 77.7292 115.061C77.1598 115.061 76.6983 115.524 76.6983 116.095Z" fill="white"/>
<path d="M71.5436 116.095C71.5436 116.666 72.0052 117.129 72.5746 117.129C73.1439 117.129 73.6055 116.666 73.6055 116.095C73.6055 115.524 73.1439 115.061 72.5746 115.061C72.0052 115.061 71.5436 115.524 71.5436 116.095Z" fill="white"/>
<path d="M87.0076 38.5442C87.0076 39.1153 87.4691 39.5782 88.0385 39.5782C88.6079 39.5782 89.0694 39.1153 89.0694 38.5442C89.0694 37.9731 88.6079 37.5102 88.0385 37.5102C87.4691 37.5102 87.0076 37.9731 87.0076 38.5442Z" fill="white"/>
<path d="M81.8529 28.2041C81.8529 28.7752 82.3145 29.2381 82.8839 29.2381C83.4532 29.2381 83.9148 28.7752 83.9148 28.2041C83.9148 27.633 83.4532 27.1701 82.8839 27.1701C82.3145 27.1701 81.8529 27.633 81.8529 28.2041Z" fill="white"/>
</svg>
