<svg width="114" height="114" xmlns="http://www.w3.org/2000/svg" xmlns:xlink="http://www.w3.org/1999/xlink" xml:space="preserve" overflow="hidden"><g transform="translate(-3170 -495)"><path d="M3247.5 524.05C3243.59 524.05 3240.05 527.826 3240.05 532 3240.05 536.174 3243.59 539.95 3247.5 539.95 3251.41 539.95 3254.95 536.174 3254.95 532 3254.95 527.826 3251.41 524.05 3247.5 524.05Z" fill="#5EEC83" fill-rule="evenodd"/><path d="M3269 495.048C3255.3 495.048 3241.93 500.702 3231.86 509.999L3225.39 516.037C3222.57 518.864 3219.74 521.308 3217.3 524.135L3191.85 524.135C3189.02 524.135 3186.2 525.716 3184.57 528.544L3170.81 551.209C3170 552.407 3170 553.605 3170.43 554.851 3170.81 556.049 3172.01 556.864 3173.26 556.864L3196.26 561.704C3196.26 562.087 3196.69 562.518 3197.07 562.518L3207.19 572.198 3216.48 581.926C3216.48 582.309 3216.91 582.692 3217.3 582.692L3222.14 605.742C3222.14 606.94 3222.95 608.185 3224.15 608.569 3225.39 609 3226.59 609 3227.79 608.185L3250.41 594.433C3253.24 592.803 3254.86 589.976 3254.86 587.149L3254.86 561.704C3257.69 559.26 3260.14 556.433 3262.96 553.605L3269 547.136C3278.73 537.073 3283.95 523.704 3283.95 509.999L3283.95 503.913C3283.95 499.073 3279.93 495.048 3275.09 495.048ZM3247.2 567.742C3245.57 568.987 3243.99 570.185 3241.93 571.383L3224.96 582.692 3228.22 599.273 3246.38 587.964C3246.81 587.964 3247.2 587.58 3247.2 587.149ZM3196.26 554.037 3207.62 537.073C3208.81 535.013 3210.01 533.431 3211.21 531.802L3191.85 531.802C3191.42 531.802 3191.04 532.185 3191.04 532.617L3180.11 550.778ZM3237.09 515.653C3245.57 507.172 3257.31 502.715 3269 502.715L3275.09 502.715C3275.47 502.715 3276.28 503.53 3276.28 503.913L3276.28 509.999C3276.28 522.122 3271.83 533.431 3263.35 541.913L3257.31 548.766C3251.65 554.851 3244.75 560.506 3237.9 564.914L3221.32 576.271 3212.46 566.975C3212.46 566.544 3212.46 566.544 3212.46 566.544L3202.73 557.679 3214.04 541.098C3218.49 534.246 3224.15 527.346 3230.23 521.691Z" fill="#5EEC83" fill-rule="evenodd"/><path d="M3190.42 576.048C3187.2 576.048 3183.94 577.257 3181.73 579.673 3175.25 585.812 3174.05 599.683 3174.05 603.743 3174.05 604.565 3174.43 604.952 3175.25 604.952 3179.28 604.952 3193.06 603.743 3199.1 597.605 3204 592.723 3204 584.168 3199.1 579.673 3196.9 577.257 3193.68 576.048 3190.42 576.048Z" fill="#5EEC83" fill-rule="evenodd"/></g></svg>