<svg width="24" height="24" viewBox="0 0 24 24" fill="none" xmlns="http://www.w3.org/2000/svg">
<path d="M1.54004 6.57317V7.25584L12 13.1572L21.3414 7.88117V10.0145L12 15.3212L2.06671 9.67717L1.54004 9.9705V14.0532L12 19.9398L21.3414 14.6838V16.7985L12 22.1078L2.06671 16.4625L1.54004 16.7558V17.4478L12 23.3332L22.46 17.4478V13.3612L21.9267 13.0705L12 18.7145L2.65604 13.4052V11.3012L12 16.5518L22.46 10.6665V6.63717L21.9267 6.34517L12 11.9905L3.13604 6.95317L12 1.9465L19.3014 6.07184L19.94 5.71317V5.1505L12 0.666504L1.54004 6.57317Z" fill="#FF3621"/>
</svg>
